<svg xmlns="http://www.w3.org/2000/svg" width="554" height="554" viewBox="0 0 554 554"><rect width="100%" height="100%" fill="#DDDDDD"/><path fill="#999999" d="m125.045 258.265-1.89 11.13q1.78-.37 3.4-.53 1.63-.17 3.15-.17 4.22 0 7.44 1.26 3.22 1.26 5.4 3.48 2.18 2.22 3.29 5.19 1.11 2.98 1.11 6.42 0 4.26-1.5 7.77-1.5 3.52-4.16 6.02-2.66 2.49-6.31 3.86-3.64 1.37-7.93 1.37-2.52 0-4.78-.52-2.25-.51-4.23-1.38-1.98-.87-3.67-2-1.68-1.13-3.01-2.39l2.81-3.88q.89-1.26 2.33-1.26.93 0 1.89.59.96.59 2.2 1.3 1.24.7 2.92 1.29 1.68.59 4.05.59 2.52 0 4.44-.81 1.93-.82 3.2-2.28 1.28-1.46 1.93-3.47.65-2.02.65-4.39 0-4.36-2.54-6.83-2.53-2.46-7.49-2.46-3.81 0-7.81 1.41l-5.7-1.63 4.44-25.97h26.42v3.88q0 1.96-1.22 3.19-1.22 1.22-4.14 1.22h-14.69Zm42.92 0-1.89 11.13q1.78-.37 3.4-.53 1.63-.17 3.15-.17 4.22 0 7.44 1.26 3.21 1.26 5.4 3.48 2.18 2.22 3.29 5.19 1.11 2.98 1.11 6.42 0 4.26-1.5 7.77-1.5 3.52-4.16 6.02-2.66 2.49-6.31 3.86-3.64 1.37-7.94 1.37-2.51 0-4.77-.52-2.26-.51-4.23-1.38-1.98-.87-3.67-2-1.68-1.13-3.01-2.39l2.81-3.88q.89-1.26 2.33-1.26.92 0 1.89.59.96.59 2.2 1.3 1.24.7 2.92 1.29 1.68.59 4.05.59 2.52 0 4.44-.81 1.93-.82 3.2-2.28 1.28-1.46 1.93-3.47.64-2.02.64-4.39 0-4.36-2.53-6.83-2.53-2.46-7.49-2.46-3.81 0-7.81 1.41l-5.7-1.63 4.44-25.97h26.42v3.88q0 1.96-1.22 3.19-1.22 1.22-4.14 1.22h-14.69Zm36.07 25.05h16.28v-17.51q0-2.47.33-5.47l-16.61 22.98Zm24.24 0h6.73v5.29q0 .74-.48 1.27-.48.54-1.37.54h-4.88v13.06h-7.96v-13.06h-22.57q-.92 0-1.63-.57-.7-.58-.88-1.43l-.97-4.62 25.35-33.86h8.66v33.38Zm65.52 7.91-4.84 4.78-12.55-12.55-12.65 12.62-4.85-4.77 12.66-12.69-12.07-12.07 4.81-4.81 12.07 12.07 11.98-11.99 4.89 4.81-12.03 12.02 12.58 12.58Zm38.89-32.96-1.89 11.13q1.78-.37 3.41-.53 1.63-.17 3.14-.17 4.22 0 7.44 1.26 3.22 1.26 5.4 3.48 2.18 2.22 3.29 5.19 1.11 2.98 1.11 6.42 0 4.26-1.49 7.77-1.5 3.52-4.17 6.02-2.66 2.49-6.3 3.86-3.65 1.37-7.94 1.37-2.52 0-4.77-.52-2.26-.51-4.24-1.38-1.98-.87-3.66-2-1.69-1.13-3.02-2.39l2.81-3.88q.89-1.26 2.33-1.26.93 0 1.89.59.96.59 2.2 1.3 1.24.7 2.93 1.29 1.68.59 4.05.59 2.51 0 4.44-.81 1.92-.82 3.2-2.28 1.27-1.46 1.92-3.47.65-2.02.65-4.39 0-4.36-2.54-6.83-2.53-2.46-7.49-2.46-3.81 0-7.81 1.41l-5.69-1.63 4.44-25.97h26.41v3.88q0 1.96-1.22 3.19-1.22 1.22-4.14 1.22h-14.69Zm42.92 0-1.89 11.13q1.78-.37 3.41-.53 1.63-.17 3.14-.17 4.22 0 7.44 1.26 3.22 1.26 5.4 3.48 2.18 2.22 3.29 5.19 1.11 2.98 1.11 6.42 0 4.26-1.49 7.77-1.5 3.52-4.17 6.02-2.66 2.49-6.3 3.86-3.65 1.37-7.94 1.37-2.52 0-4.77-.52-2.26-.51-4.24-1.38-1.98-.87-3.66-2-1.69-1.13-3.02-2.39l2.81-3.88q.89-1.26 2.33-1.26.93 0 1.89.59.96.59 2.2 1.3 1.24.7 2.93 1.29 1.68.59 4.05.59 2.51 0 4.44-.81 1.92-.82 3.2-2.28 1.27-1.46 1.92-3.47.65-2.02.65-4.39 0-4.36-2.54-6.83-2.53-2.46-7.49-2.46-3.81 0-7.81 1.41l-5.69-1.63 4.44-25.97h26.41v3.88q0 1.96-1.22 3.19-1.22 1.22-4.14 1.22h-14.69Zm36.08 25.05h16.28v-17.51q0-2.47.33-5.47l-16.61 22.98Zm24.23 0h6.73v5.29q0 .74-.48 1.27-.48.54-1.37.54h-4.88v13.06h-7.95v-13.06h-22.57q-.93 0-1.63-.57-.71-.58-.89-1.43l-.96-4.62 25.34-33.86h8.66v33.38Z"/></svg>